<svg width="179" height="193" viewBox="0 0 179 193" fill="none" xmlns="http://www.w3.org/2000/svg">
<rect x="0.5" y="0.5" width="177.569" height="191.936" rx="10.5" fill="#131313"/>
<rect x="0.5" y="0.5" width="177.569" height="191.936" rx="10.5" stroke="white"/>
<path d="M145.671 163.378V166.378H148.671H154.857C155.35 166.378 155.569 166.737 155.569 166.962V169.936H23V166.962C23 166.737 23.2193 166.378 23.7117 166.378H29.8978H32.8978V163.378V27.1689C32.8978 24.9642 34.7787 23 37.3211 23H141.248C143.791 23 145.671 24.9642 145.671 27.1689V163.378ZM99.1824 166.378H102.182V163.378V138.287C102.182 134.552 99.0778 131.702 95.4707 131.702H83.0985C79.4913 131.702 76.3868 134.552 76.3868 138.287V163.378V166.378H79.3868H99.1824ZM63.3029 36.117C59.6957 36.117 56.5912 38.9673 56.5912 42.7015V54.6496C56.5912 58.3837 59.6957 61.234 63.3029 61.234H75.6751C79.2822 61.234 82.3868 58.3837 82.3868 54.6496V42.7015C82.3868 38.9673 79.2822 36.117 75.6751 36.117H63.3029ZM63.3029 64.7926C59.6957 64.7926 56.5912 67.6429 56.5912 71.377V83.3251C56.5912 87.0593 59.6957 89.9096 63.3029 89.9096H75.6751C79.2822 89.9096 82.3868 87.0593 82.3868 83.3251V71.377C82.3868 67.6429 79.2822 64.7926 75.6751 64.7926H63.3029ZM63.3029 118.585H75.6751C79.2822 118.585 82.3868 115.735 82.3868 112.001V100.053C82.3868 96.3184 79.2822 93.4681 75.6751 93.4681H63.3029C59.6957 93.4681 56.5912 96.3184 56.5912 100.053V112.001C56.5912 115.735 59.6957 118.585 63.3029 118.585ZM115.266 118.585C118.873 118.585 121.978 115.735 121.978 112.001V100.053C121.978 96.3184 118.873 93.4681 115.266 93.4681H102.894C99.2869 93.4681 96.1824 96.3184 96.1824 100.053V112.001C96.1824 115.735 99.2869 118.585 102.894 118.585H115.266ZM115.266 89.9096C118.873 89.9096 121.978 87.0593 121.978 83.3251V71.377C121.978 67.6429 118.873 64.7926 115.266 64.7926H102.894C99.2869 64.7926 96.1824 67.6429 96.1824 71.377V83.3251C96.1824 87.0593 99.2869 89.9096 102.894 89.9096H115.266ZM115.266 61.234C118.873 61.234 121.978 58.3837 121.978 54.6496V42.7015C121.978 38.9673 118.873 36.117 115.266 36.117H102.894C99.2869 36.117 96.1824 38.9673 96.1824 42.7015V54.6496C96.1824 58.3837 99.2869 61.234 102.894 61.234H115.266Z" fill="#851A1A" stroke="white" stroke-width="6"/>
</svg>
