<svg width="226" height="226" viewBox="0 0 226 226" fill="none" xmlns="http://www.w3.org/2000/svg">
<rect x="1" y="1" width="223.833" height="223.833" rx="39" fill="#0A0A0A"/>
<rect x="1" y="1" width="223.833" height="223.833" rx="39" stroke="#262626" stroke-width="2"/>
<path d="M66.1667 112.917H50.5833C46.4504 112.917 42.4867 114.558 39.5643 117.481C36.6418 120.403 35 124.367 35 128.5V175.25C35 179.383 36.6418 183.347 39.5643 186.269C42.4867 189.192 46.4504 190.833 50.5833 190.833H66.1667" stroke="#DC261E" stroke-width="15.5833" stroke-linecap="round" stroke-linejoin="round"/>
<path d="M66.1666 190.833V50.5833C66.1666 46.4504 67.8084 42.4867 70.7309 39.5643C73.6533 36.6418 77.617 35 81.75 35H144.083C148.216 35 152.18 36.6418 155.102 39.5643C158.025 42.4867 159.667 46.4504 159.667 50.5833V190.833H66.1666Z" stroke="#DC261E" stroke-width="15.5833" stroke-linecap="round" stroke-linejoin="round"/>
<path d="M159.667 89.5417H175.25C179.383 89.5417 183.347 91.1835 186.269 94.1059C189.191 97.0284 190.833 100.992 190.833 105.125V175.25C190.833 179.383 189.191 183.347 186.269 186.269C183.347 189.192 179.383 190.833 175.25 190.833H159.667" stroke="#DC261E" stroke-width="15.5833" stroke-linecap="round" stroke-linejoin="round"/>
<path d="M96.5972 63.9583H129.236" stroke="#DC261E" stroke-width="15.5833" stroke-linecap="round" stroke-linejoin="round"/>
<path d="M96.5972 96.5972H129.236" stroke="#DC261E" stroke-width="15.5833" stroke-linecap="round" stroke-linejoin="round"/>
<path d="M96.5972 129.236H129.236" stroke="#DC261E" stroke-width="15.5833" stroke-linecap="round" stroke-linejoin="round"/>
<path d="M96.5972 161.875H129.236" stroke="#DC261E" stroke-width="15.5833" stroke-linecap="round" stroke-linejoin="round"/>
</svg>
